<svg width="512" height="512" viewBox="0 0 512 512" fill="none" xmlns="http://www.w3.org/2000/svg">
  <path d="M256 38L296 78H356L388 110V170L432 214V298L388 342V402L356 434H296L256 474L216 434H156L124 402V342L80 298V214L124 170V110L156 78H216L256 38Z" fill="#E72A23"/>
  <path d="M72 308L52 338L74 338L94 365L103 333L134 324L108 309L103 276L84 300L72 308Z" fill="#E72A23"/>
  <path d="M380 62L406 84L442 92L418 116L422 150L390 136L358 150L364 116L340 92L374 84L380 62Z" fill="#E72A23"/>
  <path d="M256 116C196 116 146 164 146 224C146 269 174 308 216 325V355C216 372 230 386 247 386H265C282 386 296 372 296 355V325C338 308 366 269 366 224C366 164 316 116 256 116Z" fill="#FFFFFF"/>
  <path d="M212 230C212 213 226 199 243 199C250 199 256 205 256 212V245H212V230Z" fill="#E72A23"/>
  <path d="M300 230C300 213 286 199 269 199C262 199 256 205 256 212V245H300V230Z" fill="#E72A23"/>
  <path d="M206 286L230 268H282L306 286L298 324L272 350H240L214 324L206 286Z" fill="#E72A23"/>
  <rect x="232" y="295" width="12" height="24" rx="2" fill="#FFFFFF"/>
  <rect x="250" y="295" width="12" height="24" rx="2" fill="#FFFFFF"/>
  <rect x="268" y="295" width="12" height="24" rx="2" fill="#FFFFFF"/>
  <path d="M222 334L240 346M292 334L274 346" stroke="#FFFFFF" stroke-width="8" stroke-linecap="round"/>
</svg>
