<svg width="180" height="180" viewBox="0 0 180 180" fill="none" xmlns="http://www.w3.org/2000/svg">
  <path d="M90 13L104 27H125L136 38V59L151 74V106L136 121V142L125 153H104L90 167L76 153H55L44 142V121L29 106V74L44 59V38L55 27H76L90 13Z" fill="#E72A23"/>
  <path d="M26 109L19 120L27 120L34 130L37 119L48 116L39 111L37 99L31 107L26 109Z" fill="#E72A23"/>
  <path d="M134 22L143 30L156 33L147 42L149 54L137 49L125 54L127 42L118 33L131 30L134 22Z" fill="#E72A23"/>
  <path d="M90 40C69 40 51 57 51 78C51 94 61 108 76 114V125C76 131 81 136 87 136H93C99 136 104 131 104 125V114C119 108 129 94 129 78C129 57 111 40 90 40Z" fill="#FFFFFF"/>
  <path d="M74 80C74 74 79 69 85 69C87 69 90 72 90 74V86H74V80Z" fill="#E72A23"/>
  <path d="M106 80C106 74 101 69 95 69C93 69 90 72 90 74V86H106V80Z" fill="#E72A23"/>
  <path d="M72 100L80 94H100L108 100L105 113L96 122H84L75 113L72 100Z" fill="#E72A23"/>
  <rect x="81" y="103" width="4" height="9" rx="1" fill="#FFFFFF"/>
  <rect x="88" y="103" width="4" height="9" rx="1" fill="#FFFFFF"/>
  <rect x="95" y="103" width="4" height="9" rx="1" fill="#FFFFFF"/>
</svg>